<svg width="26" height="26" viewBox="0 0 26 26" fill="none" xmlns="http://www.w3.org/2000/svg">
<path d="M12.519 0.481018C5.60373 0.481018 0 6.08476 0 13C0 19.9153 5.60373 25.519 12.519 25.519C19.4342 25.519 25.038 19.9153 25.038 13C25.038 6.08476 19.4342 0.481018 12.519 0.481018ZM17.8896 14.1923H16.1012C15.4688 14.1923 14.8622 14.4435 14.415 14.8907C13.9679 15.3379 13.7166 15.9444 13.7166 16.5769H11.3321C11.3321 15.9444 11.0808 15.3379 10.6336 14.8907C10.1864 14.4435 9.57992 14.1923 8.94749 14.1923H7.15907C6.10177 14.1923 5.07444 13.841 4.23857 13.1935C3.4027 12.546 2.80568 11.6392 2.54135 10.6154H5.09284C5.30212 10.9779 5.60314 11.2789 5.96562 11.4882C6.32811 11.6975 6.73931 11.8077 7.15787 11.8077H8.9463C9.62302 11.8069 10.2921 11.9505 10.9089 12.2289C11.5258 12.5073 12.0761 12.9141 12.5231 13.4221C12.9703 12.9142 13.5207 12.5075 14.1375 12.2291C14.7542 11.9507 15.4233 11.8071 16.1 11.8077H17.8884C18.3071 11.8078 18.7184 11.6977 19.081 11.4884C19.4436 11.2791 19.7447 10.978 19.9541 10.6154H22.5073C22.2424 11.6392 21.6449 12.5459 20.8088 13.1933C19.9727 13.8407 18.9453 14.1921 17.8878 14.1923H17.8896Z" fill="#283681"/>
</svg>
